<svg width="57" height="57" viewBox="0 0 57 57" fill="none" xmlns="http://www.w3.org/2000/svg">
<path d="M7.21912 44.4615L8.56076 45.1324L8.97572 44.3025L8.41841 43.5606L7.21912 44.4615ZM12.5383 49.7808L13.4393 48.5815L12.6974 48.0242L11.8675 48.4391L12.5383 49.7808ZM1.8999 55.1L0.558262 54.4292C0.26952 55.0067 0.382702 55.7041 0.839242 56.1606C1.29578 56.6172 1.99324 56.7304 2.57072 56.4416L1.8999 55.1ZM17.0999 17.1L16.2679 15.8519C15.8506 16.1301 15.5999 16.5985 15.5999 17.1H17.0999ZM39.8999 39.9V41.4C40.4014 41.4 40.8698 41.1493 41.148 40.732L39.8999 39.9ZM23.7661 19.0971L25.2457 18.8505L23.7661 19.0971ZM24.296 22.2764L22.8164 22.523L24.296 22.2764ZM22.6555 26.0629L23.4876 27.311L22.6555 26.0629ZM37.9028 33.2338L38.1494 31.7542L37.9028 33.2338ZM34.7235 32.7039L34.4769 34.1835L34.7235 32.7039ZM30.937 34.3444L29.6889 33.5123V33.5123L30.937 34.3444ZM0.399902 28.5C0.399902 34.8249 2.49138 40.6657 6.01984 45.3625L8.41841 43.5606C5.26685 39.3655 3.3999 34.1529 3.3999 28.5H0.399902ZM28.4999 0.399994C12.9807 0.399994 0.399902 12.9808 0.399902 28.5H3.3999C3.3999 14.6376 14.6376 3.39999 28.4999 3.39999V0.399994ZM56.5999 28.5C56.5999 12.9808 44.0191 0.399994 28.4999 0.399994V3.39999C42.3622 3.39999 53.5999 14.6376 53.5999 28.5H56.5999ZM28.4999 56.6C44.0191 56.6 56.5999 44.0192 56.5999 28.5H53.5999C53.5999 42.3623 42.3622 53.6 28.4999 53.6V56.6ZM11.6374 50.9801C16.3342 54.5085 22.175 56.6 28.4999 56.6V53.6C22.847 53.6 17.6344 51.733 13.4393 48.5815L11.6374 50.9801ZM2.57072 56.4416L13.2092 51.1224L11.8675 48.4391L1.22908 53.7584L2.57072 56.4416ZM5.87748 43.7907L0.558262 54.4292L3.24154 55.7708L8.56076 45.1324L5.87748 43.7907ZM15.5999 17.1V20.9H18.5999V17.1H15.5999ZM36.0999 41.4H39.8999V38.4H36.0999V41.4ZM15.5999 20.9C15.5999 32.2218 24.7781 41.4 36.0999 41.4V38.4C26.4349 38.4 18.5999 30.565 18.5999 20.9H15.5999ZM17.932 18.3481L18.742 17.8081L17.0779 15.3119L16.2679 15.8519L17.932 18.3481ZM22.2865 19.3437L22.8164 22.523L25.7756 22.0298L25.2457 18.8505L22.2865 19.3437ZM21.8235 24.8148L18.1679 27.2519L19.832 29.7481L23.4876 27.311L21.8235 24.8148ZM22.8164 22.523C22.9652 23.4158 22.5765 24.3128 21.8235 24.8148L23.4876 27.311C25.2229 26.1541 26.1184 24.087 25.7756 22.0298L22.8164 22.523ZM18.742 17.8081C20.1307 16.8823 22.0121 17.6973 22.2865 19.3437L25.2457 18.8505C24.6134 15.0568 20.2779 13.1785 17.0779 15.3119L18.742 17.8081ZM41.148 40.732L41.688 39.922L39.1918 38.2579L38.6518 39.0679L41.148 40.732ZM38.1494 31.7542L34.9701 31.2243L34.4769 34.1835L37.6562 34.7134L38.1494 31.7542ZM29.6889 33.5123L27.2518 37.1679L29.748 38.832L32.1851 35.1764L29.6889 33.5123ZM34.9701 31.2243C32.9129 30.8815 30.8458 31.777 29.6889 33.5123L32.1851 35.1764C32.6871 34.4233 33.5841 34.0347 34.4769 34.1835L34.9701 31.2243ZM41.688 39.922C43.8214 36.722 41.9431 32.3865 38.1494 31.7542L37.6562 34.7134C39.3025 34.9878 40.1176 36.8692 39.1918 38.2579L41.688 39.922Z" fill="#DDE9FF"/>
</svg>
